<?xml version="1.0" encoding="UTF-8"?>
<svg id="Layer_1" data-name="Layer 1" xmlns="http://www.w3.org/2000/svg" viewBox="0 0 820.05 153.81">
  <defs>
    <style>
      .cls-1 {
        fill: #fff;
      }

      .cls-2 {
        fill: #6d6d6d;
      }
    </style>
  </defs>
  <g>
    <path class="cls-1" d="m62.08,37.88v17.76H0v-17.76h62.07ZM16.65,10.65h22.12v107.5c0,4.29.64,7.51,1.92,9.65,1.28,2.15,2.95,3.6,4.99,4.37,2.05.77,4.28,1.15,6.7,1.15,1.78,0,3.33-.12,4.66-.37,1.33-.25,2.37-.44,3.11-.59l4,18.27c-1.28.49-3.11,1-5.47,1.52-2.37.52-5.33.8-8.88.85-5.82.1-11.25-.94-16.28-3.11-5.03-2.17-9.1-5.52-12.21-10.06-3.11-4.54-4.66-10.23-4.66-17.09V10.65Z"/>
    <path class="cls-1" d="m110.98,84.04v67.47h-22.12V0h21.83v56.38h1.41c2.66-6.12,6.73-10.97,12.21-14.58,5.47-3.6,12.63-5.4,21.46-5.4,7.79,0,14.61,1.6,20.46,4.81,5.85,3.21,10.38,7.98,13.61,14.32,3.23,6.34,4.85,14.24,4.85,23.71v72.28h-22.12v-69.62c0-8.33-2.15-14.81-6.44-19.42-4.29-4.61-10.26-6.92-17.9-6.92-5.23,0-9.9,1.11-14.02,3.33-4.12,2.22-7.35,5.46-9.69,9.73-2.34,4.27-3.51,9.41-3.51,15.43Z"/>
    <path class="cls-1" d="m263.24,153.81c-11.2,0-20.83-2.4-28.89-7.21s-14.28-11.59-18.64-20.35c-4.36-8.75-6.55-19.03-6.55-30.81s2.18-21.9,6.55-30.78c4.37-8.88,10.48-15.81,18.35-20.79,7.87-4.98,17.08-7.47,27.63-7.47,6.41,0,12.63,1.06,18.64,3.18,6.02,2.12,11.42,5.45,16.2,9.99,4.78,4.54,8.56,10.42,11.32,17.65,2.76,7.23,4.14,15.99,4.14,26.3v7.84h-90.34v-16.57h68.66c0-5.82-1.18-10.99-3.55-15.5-2.37-4.51-5.69-8.08-9.95-10.69-4.27-2.61-9.26-3.92-14.98-3.92-6.21,0-11.63,1.52-16.24,4.55-4.61,3.03-8.16,6.98-10.65,11.84-2.49,4.86-3.74,10.12-3.74,15.8v12.95c0,7.6,1.34,14.06,4.03,19.38,2.69,5.33,6.45,9.38,11.28,12.17,4.83,2.79,10.48,4.18,16.94,4.18,4.19,0,8.01-.6,11.47-1.81,3.45-1.21,6.44-3.02,8.95-5.44,2.52-2.42,4.44-5.4,5.77-8.95l20.94,3.77c-1.68,6.17-4.67,11.55-8.99,16.17-4.32,4.61-9.72,8.19-16.2,10.73-6.49,2.54-13.87,3.81-22.16,3.81Z"/>
    <path class="cls-1" d="m393.6,151.52V0h22.12v56.3h1.33c1.28-2.37,3.13-5.1,5.55-8.21,2.42-3.11,5.77-5.83,10.06-8.18,4.29-2.34,9.96-3.51,17.02-3.51,9.17,0,17.36,2.32,24.56,6.95,7.2,4.64,12.86,11.32,16.98,20.05,4.12,8.73,6.18,19.24,6.18,31.52s-2.05,22.8-6.14,31.55c-4.09,8.76-9.72,15.49-16.87,20.2-7.15,4.71-15.32,7.07-24.49,7.07-6.91,0-12.54-1.16-16.91-3.48-4.36-2.32-7.78-5.03-10.25-8.14-2.47-3.11-4.37-5.87-5.7-8.29h-1.85v17.68h-21.6Zm21.68-56.82c0,7.99,1.16,14.99,3.48,21.01,2.32,6.02,5.67,10.72,10.06,14.09,4.39,3.38,9.77,5.07,16.13,5.07s12.13-1.76,16.57-5.29c4.44-3.53,7.81-8.32,10.1-14.39,2.29-6.07,3.44-12.9,3.44-20.49s-1.12-14.23-3.37-20.2c-2.25-5.97-5.6-10.68-10.06-14.13-4.46-3.45-10.02-5.18-16.68-5.18s-11.83,1.65-16.24,4.96c-4.41,3.31-7.76,7.92-10.02,13.84-2.27,5.92-3.4,12.82-3.4,20.72Z"/>
    <path class="cls-1" d="m570.05,153.81c-10.65,0-19.95-2.44-27.89-7.32-7.94-4.88-14.11-11.71-18.5-20.49-4.39-8.78-6.58-19.04-6.58-30.78s2.19-22.1,6.58-30.93c4.39-8.83,10.55-15.68,18.5-20.57,7.94-4.88,17.24-7.32,27.89-7.32s19.95,2.44,27.89,7.32c7.94,4.88,14.11,11.74,18.5,20.57,4.39,8.83,6.58,19.14,6.58,30.93s-2.2,22-6.58,30.78c-4.39,8.78-10.56,15.61-18.5,20.49-7.94,4.88-17.24,7.32-27.89,7.32Zm.07-18.57c6.9,0,12.63-1.82,17.16-5.47,4.54-3.65,7.9-8.51,10.1-14.58,2.19-6.07,3.29-12.75,3.29-20.05s-1.1-13.92-3.29-20.01c-2.2-6.09-5.56-10.99-10.1-14.69s-10.26-5.55-17.16-5.55-12.71,1.85-17.28,5.55c-4.56,3.7-7.94,8.6-10.14,14.69-2.19,6.09-3.29,12.76-3.29,20.01s1.1,13.98,3.29,20.05,5.57,10.93,10.14,14.58c4.56,3.65,10.32,5.47,17.28,5.47Z"/>
    <path class="cls-1" d="m660.53,37.88l25.08,44.24,25.3-44.24h24.19l-35.44,56.82,35.73,56.82h-24.19l-25.6-42.47-25.52,42.47h-24.27l35.37-56.82-34.92-56.82h24.27Z"/>
  </g>
  <circle class="cls-2" cx="790.83" cy="124.58" r="29.23"/>
</svg>